<?xml version="1.0" encoding="UTF-8"?>
<svg version="1.1" xmlns="http://www.w3.org/2000/svg" width="122" height="120">
<path d="M0 0 C0.99 0.33 1.98 0.66 3 1 C3.375 3.0625 3.375 3.0625 3 6 C1.20822891 8.53572282 -0.84238121 10.77174488 -3 13 C4.58784858 19.01794888 13.6267808 17.17078232 22.75 16.12109375 C25 16 25 16 27 17 C26.80859375 19.3359375 26.80859375 19.3359375 26 22 C23.78515625 23.4765625 23.78515625 23.4765625 21.0625 24.625 C16.84244713 26.40230862 16.84244713 26.40230862 14 30 C13.48239579 32.55950678 13.48239579 32.55950678 13.21875 35.4375 C13.09886719 36.49710938 12.97898437 37.55671875 12.85546875 38.6484375 C12.73816406 39.75445312 12.62085937 40.86046875 12.5 42 C12.26790679 44.18830737 12.02864251 46.3758694 11.78125 48.5625 C11.6275293 50.01849609 11.6275293 50.01849609 11.47070312 51.50390625 C11 54 11 54 9 57 C6.5 57.3125 6.5 57.3125 4 57 C1.39991702 54.39991702 1.29310382 52.53273125 0.5625 48.9375 C0.17771484 47.06964844 0.17771484 47.06964844 -0.21484375 45.1640625 C-0.78050189 42.24955627 -1.28219619 39.32955893 -1.75390625 36.3984375 C-1.87902588 35.63539307 -2.00414551 34.87234863 -2.13305664 34.08618164 C-2.374138 32.59237546 -2.60414756 31.09673228 -2.82202148 29.59936523 C-3.30481535 26.5950402 -3.6647883 24.41819303 -5.59375 22.01171875 C-6.0578125 21.67785156 -6.521875 21.34398438 -7 21 C-7.96985798 27.15004063 -8.90842297 33.30201298 -9.765625 39.46875 C-9.89735107 40.41210205 -10.02907715 41.3554541 -10.16479492 42.32739258 C-10.42833572 44.22265372 -10.68895187 46.11832402 -10.9465332 48.0144043 C-11.06859131 48.89008057 -11.19064941 49.76575684 -11.31640625 50.66796875 C-11.42412354 51.45453857 -11.53184082 52.2411084 -11.64282227 53.05151367 C-12 55 -12 55 -13 57 C-14.98 57 -16.96 57 -19 57 C-21.1880952 53.39324967 -21.60333084 49.720008 -22.0703125 45.609375 C-22.15626678 44.90476135 -22.24222107 44.20014771 -22.33078003 43.47418213 C-22.6024918 41.23356202 -22.86388051 38.9918767 -23.125 36.75 C-23.30791297 35.22648061 -23.49149923 33.7030419 -23.67578125 32.1796875 C-24.12499239 28.45401445 -24.56495225 24.72735235 -25 21 C-27.44412114 24.65777689 -28.54852456 27.67394575 -29.28125 32 C-29.48363281 33.134375 -29.68601562 34.26875 -29.89453125 35.4375 C-30.09433594 36.613125 -30.29414062 37.78875 -30.5 39 C-30.89683947 41.33495224 -31.30276815 43.66838198 -31.71875 46 C-31.98075195 47.546875 -31.98075195 47.546875 -32.24804688 49.125 C-33.05854813 52.22385156 -34.1090746 54.41955297 -36 57 C-38.5625 57.5 -38.5625 57.5 -41 57 C-43.18104041 53.72843939 -43.38145687 52.1851216 -43.74609375 48.34375 C-43.91915039 46.68666016 -43.91915039 46.68666016 -44.09570312 44.99609375 C-44.32353104 42.66573965 -44.54749123 40.33500418 -44.76757812 38.00390625 C-44.94256836 36.34681641 -44.94256836 36.34681641 -45.12109375 34.65625 C-45.2183374 33.64369141 -45.31558105 32.63113281 -45.41577148 31.58789062 C-46.06255315 28.72291543 -46.70337941 27.76540779 -49 26 C-51.26027345 24.7951851 -51.26027345 24.7951851 -53.6875 23.8125 C-54.49574219 23.46832031 -55.30398437 23.12414062 -56.13671875 22.76953125 C-57.05904297 22.38861328 -57.05904297 22.38861328 -58 22 C-58.042721 20.33388095 -58.04063832 18.66617115 -58 17 C-57.67 16.67 -57.34 16.34 -57 16 C-55.55816328 16.09370427 -54.12047034 16.25237943 -52.6875 16.4375 C-41.56568728 18.11551622 -41.56568728 18.11551622 -31.25 15 C-30.5075 14.34 -29.765 13.68 -29 13 C-29.63228516 12.31164062 -29.63228516 12.31164062 -30.27734375 11.609375 C-30.82519531 10.99578125 -31.37304688 10.3821875 -31.9375 9.75 C-32.48277344 9.14671875 -33.02804688 8.5434375 -33.58984375 7.921875 C-35.07209564 5.90174223 -35.66729421 4.4715287 -36 2 C-35 1 -35 1 -32.7109375 0.75390625 C-29.47154397 1.04797223 -28.18269267 1.97537115 -25.625 3.9375 C-21.6453836 6.69110607 -18.99414761 8.26284987 -14 8 C-9.60439889 6.31410951 -5.53389484 4.25887118 -1.88671875 1.265625 C-1.26410156 0.84796875 -0.64148438 0.4303125 0 0 Z " fill="#020202" transform="translate(84,38)"/>
<path d="M0 0 C0.74685059 0.37866211 1.49370117 0.75732422 2.26318359 1.14746094 C3.93938631 1.97087061 5.61653286 2.79236069 7.29443359 3.61230469 C8.21482422 4.06460449 9.13521484 4.5169043 10.08349609 4.98291016 C13.4693568 6.62009504 16.87765119 8.20513932 20.29443359 9.77636719 C20.9108371 10.06013718 21.5272406 10.34390717 22.162323 10.63627625 C25.22464368 12.0450455 28.28848836 13.45039521 31.35351562 14.85327148 C46.65207008 21.91122699 46.65207008 21.91122699 50.13818359 24.45996094 C50.63318359 25.94496094 50.63318359 25.94496094 51.13818359 27.45996094 C50.13818359 29.02246094 50.13818359 29.02246094 48.13818359 30.45996094 C41.96145171 30.1524613 37.37108606 28.52310848 31.88818359 25.77246094 C31.15237061 25.41595459 30.41655762 25.05944824 29.65844727 24.69213867 C26.27737332 23.04668514 22.92127878 21.3557155 19.57958984 19.63183594 C18.54705078 19.10074219 17.51451172 18.56964844 16.45068359 18.02246094 C15.55994141 17.549375 14.66919922 17.07628906 13.75146484 16.58886719 C8.77368582 14.43852617 5.5998797 14.06276612 0.51318359 15.97949219 C-5.5139968 18.60565306 -11.17977633 21.85421178 -16.86181641 25.14746094 C-18.90336622 26.31823764 -20.94502709 27.48882071 -22.98681641 28.65917969 C-23.87626953 29.17311279 -24.76572266 29.6870459 -25.68212891 30.21655273 C-29.71426493 32.51669484 -32.13915979 32.78732144 -36.86181641 32.45996094 C-39.46843765 31.47382155 -41.73533055 30.4936377 -44.17431641 29.20996094 C-44.79371094 28.90960938 -45.41310547 28.60925781 -46.05126953 28.29980469 C-49.50075723 26.5394798 -51.62296051 25.21810096 -52.86181641 21.45996094 C-12.77381313 -6.24313076 -12.77381313 -6.24313076 0 0 Z " fill="#020202" transform="translate(61.86181640625,14.5400390625)"/>
<path d="M0 0 C1.75478052 0.56879093 3.50369158 1.15570656 5.25 1.75 C6.71179688 2.23726563 6.71179688 2.23726563 8.203125 2.734375 C11.30265775 4.13695686 12.93182484 5.3019715 15 8 C17.12737323 15.40566718 17.31134326 23.33749634 17 31 C14.54416344 29.77208172 12.31059065 28.4740675 10 27 C9.11183594 26.45988281 8.22367188 25.91976562 7.30859375 25.36328125 C0.49467248 20.42973085 0.49467248 20.42973085 -0.44287109 15.82470703 C-0.86899883 10.51689435 -0.51358908 5.28996757 0 0 Z " fill="#020202" transform="translate(20,62)"/>
<path d="M0 0 C2.33944736 0.28730055 4.6739143 0.61936779 7 1 C8.33157895 6.44736842 8.33157895 6.44736842 6.875 8.875 C4.34227807 10.39463316 2.9039635 10.50819361 0 10 C-1.9375 8.3125 -1.9375 8.3125 -3 6 C-2.33228817 3.60736593 -1.77902615 1.77902615 0 0 Z " fill="#040404" transform="translate(43,44)"/>
<path d="M0 0 C2.3125 1.25 2.3125 1.25 3.3125 2.25 C3.02519945 4.58944736 2.69313221 6.9239143 2.3125 9.25 C-3.13486842 10.58157895 -3.13486842 10.58157895 -5.5625 9.125 C-7.08213316 6.59227807 -7.19569361 5.1539635 -6.6875 2.25 C-4.33222347 -0.45420638 -3.50969299 -0.97944921 0 0 Z " fill="#050505" transform="translate(69.6875,34.75)"/>
<path d="M0 0 C2.625 0.3125 2.625 0.3125 4.5 2.0625 C5.625 4.3125 5.625 4.3125 5.4375 6.4375 C4.625 8.3125 4.625 8.3125 2.625 10.3125 C0.1875 10.6875 0.1875 10.6875 -2.375 10.3125 C-4.3125 8.625 -4.3125 8.625 -5.375 6.3125 C-3.75111182 0.49356734 -3.75111182 0.49356734 0 0 Z " fill="#040404" transform="translate(90.375,43.6875)"/>
<path d="M0 0 C-6.75 4 -6.75 4 -9 4 C-8 1 -8 1 -6.1875 -0.25 C-3.66056586 -1.11637742 -2.47778006 -0.88492145 0 0 Z " fill="#0B0B0B" transform="translate(49,15)"/>
</svg>
